<svg width="100" height="120" viewBox="0 0 100 120" fill="none" xmlns="http://www.w3.org/2000/svg">
  <defs>
    <linearGradient id="grad1" x1="0%" y1="0%" x2="100%" y2="100%">
      <stop offset="0%" style="stop-color:#5DADE2;stop-opacity:1" />
      <stop offset="100%" style="stop-color:#2E86AB;stop-opacity:1" />
    </linearGradient>
    <linearGradient id="grad2" x1="0%" y1="0%" x2="100%" y2="100%">
      <stop offset="0%" style="stop-color:#1B4F72;stop-opacity:1" />
      <stop offset="100%" style="stop-color:#0E2C40;stop-opacity:1" />
    </linearGradient>
    <linearGradient id="grad3" x1="0%" y1="0%" x2="100%" y2="100%">
      <stop offset="0%" style="stop-color:#A8D08D;stop-opacity:1" />
      <stop offset="100%" style="stop-color:#7FB069;stop-opacity:1" />
    </linearGradient>
    <linearGradient id="grad4" x1="0%" y1="0%" x2="100%" y2="100%">
      <stop offset="0%" style="stop-color:#4A9D5F;stop-opacity:1" />
      <stop offset="100%" style="stop-color:#2D6A40;stop-opacity:1" />
    </linearGradient>
  </defs>

  <!-- Shield base -->
  <path d="M 50 8 Q 23 10 18 15 L 18 62 Q 18 88 50 112 Q 82 88 82 62 L 82 15 Q 77 10 50 8 Z" fill="#0E2C40"/>

  <!-- Top left (Light Blue - Fire) -->
  <path d="M 50 8 Q 23 10 18 15 L 18 62 Q 23 60 33 52 Q 40 46 50 39 L 50 8 Z" fill="url(#grad1)"/>

  <!-- Top right (Dark Blue - Water) -->
  <path d="M 50 8 Q 77 10 82 15 L 82 62 Q 77 60 67 52 Q 60 46 50 39 L 50 8 Z" fill="url(#grad2)"/>

  <!-- Bottom left (Light Green) -->
  <path d="M 50 39 Q 40 46 33 52 Q 23 60 18 62 Q 18 88 50 112 L 50 74 Q 43 69 38 65 Q 23 60 33 52 Q 40 46 50 39 Z" fill="url(#grad3)"/>

  <!-- Bottom right (Dark Green) -->
  <path d="M 50 39 Q 60 46 67 52 Q 77 60 82 62 Q 82 88 50 112 L 50 74 Q 57 69 62 65 Q 77 60 67 52 Q 60 46 50 39 Z" fill="url(#grad4)"/>

  <!-- White dividing lines -->
  <path d="M 50 8 Q 40 46 18 62" stroke="white" stroke-width="1.5" fill="none" opacity="0.9"/>
  <path d="M 50 39 Q 45 69 50 112" stroke="white" stroke-width="1.5" fill="none" opacity="0.9"/>

  <!-- Fire icon -->
  <g transform="translate(33, 28)">
    <path d="M 5 0 Q 3.5 2.5 4 5 Q 5 7.5 6.5 9 Q 8 7.5 8.5 5 Q 9 2.5 7.5 0 Q 7 2 6.5 2.5 Q 6 2 5 0 Z" fill="white"/>
  </g>

  <!-- Water droplet -->
  <g transform="translate(61, 31)">
    <path d="M 5 1 Q 3.5 3.5 3.5 6 Q 3.5 8.5 5 10 Q 6.5 8.5 6.5 6 Q 6.5 3.5 5 1 Z" fill="white"/>
  </g>

  <!-- Gear -->
  <g transform="translate(33, 72)">
    <circle cx="5" cy="5" r="4" fill="white"/>
    <circle cx="5" cy="5" r="2" fill="url(#grad3)"/>
    <rect x="4.5" y="0.5" width="1" height="1.5" fill="white"/>
    <rect x="4.5" y="8" width="1" height="1.5" fill="white"/>
    <rect x="0.5" y="4.5" width="1.5" height="1" fill="white"/>
    <rect x="8" y="4.5" width="1.5" height="1" fill="white"/>
  </g>

  <!-- Leaf -->
  <g transform="translate(59, 75)">
    <path d="M 2.5 9 Q 2 5 4 2.5 Q 5.5 0.5 7.5 1 Q 6.5 4 5 5.5 Q 3.5 7 2.5 9 Z" fill="white"/>
    <path d="M 2.5 9 Q 3.5 7 5 5.5" stroke="white" stroke-width="0.4" fill="none" opacity="0.6"/>
  </g>
</svg>